<svg width="25" height="25" viewBox="0 0 25 25" fill="none" xmlns="http://www.w3.org/2000/svg">
<g id="apple" clip-path="url(#clip0_301_2830)">
<path id="bg" d="M24.5 12.5C24.5 19.124 19.13 24.5 12.5 24.5C5.87 24.5 0.5 19.124 0.5 12.5C0.5 5.87 5.87 0.5 12.5 0.5C19.13 0.5 24.5 5.87 24.5 12.5Z" fill="#283544"/>
<path id="apple_2" d="M18.1247 9.27521C18.0592 9.31421 16.5003 10.1372 16.5003 11.9619C16.5738 14.0428 18.4675 14.7726 18.5 14.7726C18.4675 14.8116 18.2141 15.7667 17.4634 16.768C16.8677 17.6304 16.2065 18.5 15.2024 18.5C14.2473 18.5 13.9044 17.9252 12.8024 17.9252C11.6189 17.9252 11.284 18.5 10.3779 18.5C9.3738 18.5 8.66359 17.5839 8.03538 16.7295C7.21923 15.6113 6.52552 13.8565 6.50103 12.1715C6.48453 11.2787 6.66448 10.401 7.12127 9.65555C7.76599 8.61482 8.91701 7.90833 10.174 7.88504C11.1371 7.85415 11.9942 8.51404 12.582 8.51404C13.1452 8.51404 14.1983 7.88504 15.3898 7.88504C15.9041 7.88555 17.2755 8.03292 18.1247 9.27521ZM12.5005 7.70677C12.3291 6.89141 12.8024 6.07604 13.2432 5.55593C13.8065 4.92693 14.6961 4.5 15.4633 4.5C15.5122 5.31537 15.2019 6.11503 14.6471 6.69744C14.1493 7.32644 13.2922 7.79996 12.5005 7.70677Z" fill="white"/>
</g>
<defs>
<clipPath id="clip0_301_2830">
<rect width="24" height="24" fill="white" transform="translate(0.5 0.5)"/>
</clipPath>
</defs>
</svg>
