<svg width="20" height="20" viewBox="0 0 20 20" fill="none" xmlns="http://www.w3.org/2000/svg">
<path d="M10.3083 1.79219L17.8083 4.79217C18.1 4.90883 18.3333 5.25883 18.3333 5.56716V8.33383C18.3333 8.79217 17.9583 9.16717 17.5 9.16717H2.49996C2.04163 9.16717 1.66663 8.79217 1.66663 8.33383V5.56716C1.66663 5.25883 1.89996 4.90883 2.19163 4.79217L9.69163 1.79219C9.8583 1.72552 10.1416 1.72552 10.3083 1.79219Z" stroke="#574A68" stroke-width="1.5" stroke-miterlimit="10" stroke-linecap="round" stroke-linejoin="round"/>
<path d="M18.3333 18.3333H1.66663V15.8333C1.66663 15.375 2.04163 15 2.49996 15H17.5C17.9583 15 18.3333 15.375 18.3333 15.8333V18.3333Z" stroke="#574A68" stroke-width="1.5" stroke-miterlimit="10" stroke-linecap="round" stroke-linejoin="round"/>
<path d="M3.33337 15.0003V9.16699" stroke="#574A68" stroke-width="1.5" stroke-miterlimit="10" stroke-linecap="round" stroke-linejoin="round"/>
<path d="M6.66663 15.0003V9.16699" stroke="#574A68" stroke-width="1.5" stroke-miterlimit="10" stroke-linecap="round" stroke-linejoin="round"/>
<path d="M10 15.0003V9.16699" stroke="#574A68" stroke-width="1.5" stroke-miterlimit="10" stroke-linecap="round" stroke-linejoin="round"/>
<path d="M13.3334 15.0003V9.16699" stroke="#574A68" stroke-width="1.5" stroke-miterlimit="10" stroke-linecap="round" stroke-linejoin="round"/>
<path d="M16.6666 15.0003V9.16699" stroke="#574A68" stroke-width="1.5" stroke-miterlimit="10" stroke-linecap="round" stroke-linejoin="round"/>
<path d="M0.833374 18.333H19.1667" stroke="#574A68" stroke-width="1.5" stroke-miterlimit="10" stroke-linecap="round" stroke-linejoin="round"/>
<path d="M10 7.08301C10.6904 7.08301 11.25 6.52336 11.25 5.83301C11.25 5.14265 10.6904 4.58301 10 4.58301C9.30964 4.58301 8.75 5.14265 8.75 5.83301C8.75 6.52336 9.30964 7.08301 10 7.08301Z" stroke="#574A68" stroke-width="1.5" stroke-miterlimit="10" stroke-linecap="round" stroke-linejoin="round"/>
</svg>
