<svg width="20" height="19" viewBox="0 0 20 19" fill="none" xmlns="http://www.w3.org/2000/svg">
<path d="M18.3084 14.7751C18.3084 15.0751 18.2417 15.3834 18.1 15.6834C17.9584 15.9834 17.775 16.2667 17.5334 16.5334C17.125 16.9834 16.675 17.3084 16.1667 17.5167C15.6667 17.7251 15.125 17.8334 14.5417 17.8334C13.6917 17.8334 12.7834 17.6334 11.825 17.2251C10.8667 16.8167 9.90835 16.2667 8.95835 15.5751C8.00002 14.8751 7.09169 14.1001 6.22502 13.2417C5.36669 12.3751 4.59169 11.4667 3.90002 10.5167C3.21669 9.56675 2.66669 8.61675 2.26669 7.67508C1.86669 6.72508 1.66669 5.81675 1.66669 4.95008C1.66669 4.38341 1.76669 3.84175 1.96669 3.34175C2.16669 2.83341 2.48335 2.36675 2.92502 1.95008C3.45835 1.42508 4.04169 1.16675 4.65835 1.16675C4.89169 1.16675 5.12502 1.21675 5.33335 1.31675C5.55002 1.41675 5.74169 1.56675 5.89169 1.78341L7.82502 4.50842C7.97502 4.71675 8.08335 4.90841 8.15835 5.09175C8.23335 5.26675 8.27502 5.44175 8.27502 5.60008C8.27502 5.80008 8.21669 6.00008 8.10002 6.19175C7.99169 6.38341 7.83335 6.58341 7.63335 6.78341L7.00002 7.44175C6.90835 7.53341 6.86669 7.64175 6.86669 7.77508C6.86669 7.84175 6.87502 7.90008 6.89169 7.96675C6.91669 8.03341 6.94169 8.08341 6.95835 8.13341C7.10835 8.40841 7.36669 8.76675 7.73335 9.20008C8.10835 9.63342 8.50835 10.0751 8.94169 10.5167C9.39169 10.9584 9.82502 11.3667 10.2667 11.7417C10.7 12.1084 11.0584 12.3584 11.3417 12.5084C11.3834 12.5251 11.4334 12.5501 11.4917 12.5751C11.5584 12.6001 11.625 12.6084 11.7 12.6084C11.8417 12.6084 11.95 12.5584 12.0417 12.4667L12.675 11.8417C12.8834 11.6334 13.0834 11.4751 13.275 11.3751C13.4667 11.2584 13.6584 11.2001 13.8667 11.2001C14.025 11.2001 14.1917 11.2334 14.375 11.3084C14.5584 11.3834 14.75 11.4917 14.9584 11.6334L17.7167 13.5917C17.9334 13.7417 18.0834 13.9167 18.175 14.1251C18.2584 14.3334 18.3084 14.5417 18.3084 14.7751Z" stroke="#574A68" stroke-width="1.5" stroke-miterlimit="10"/>
</svg>
