<svg width="14" height="18" viewBox="0 0 14 18" fill="none" xmlns="http://www.w3.org/2000/svg">
<path d="M13.2069 6.20685C13.2069 5.0057 12.8584 3.83036 12.2036 2.82337C11.5488 1.81639 10.6159 1.02102 9.51809 0.533727C8.42023 0.046436 7.20456 -0.11184 6.01852 0.0780953C4.83249 0.26803 3.72704 0.798016 2.83625 1.60378C1.94547 2.40953 1.3076 3.45645 1.00003 4.61755C0.692461 5.77865 0.728392 7.00405 1.10347 8.14513C1.47854 9.28622 2.17665 10.294 3.11312 11.0461C4.04959 11.7983 5.1842 12.2626 6.37932 12.3827V14.2758H3.89655C3.73193 14.2758 3.57406 14.3412 3.45766 14.4576C3.34125 14.574 3.27586 14.7319 3.27586 14.8965C3.27586 15.0612 3.34125 15.219 3.45766 15.3354C3.57406 15.4518 3.73193 15.5172 3.89655 15.5172H6.37932V17.3793C6.37932 17.5439 6.44472 17.7018 6.56112 17.8182C6.67752 17.9346 6.83539 18 7.00001 18C7.16463 18 7.32251 17.9346 7.43891 17.8182C7.55531 17.7018 7.62071 17.5439 7.62071 17.3793V15.5172H10.1035C10.2681 15.5172 10.426 15.4518 10.5424 15.3354C10.6588 15.219 10.7242 15.0612 10.7242 14.8965C10.7242 14.7319 10.6588 14.574 10.5424 14.4576C10.426 14.3412 10.2681 14.2758 10.1035 14.2758H7.62071V12.3827C9.15099 12.227 10.5692 11.5094 11.601 10.3686C12.6329 9.22788 13.205 7.74503 13.2069 6.20685ZM2.03448 6.20685C2.03448 5.22476 2.3257 4.26472 2.87132 3.44814C3.41694 2.63156 4.19245 1.99512 5.09978 1.61929C6.00712 1.24346 7.00552 1.14513 7.96874 1.33672C8.93196 1.52832 9.81674 2.00124 10.5112 2.69568C11.2056 3.39013 11.6785 4.2749 11.8701 5.23812C12.0617 6.20134 11.9634 7.19974 11.5876 8.10708C11.2117 9.01441 10.5753 9.78992 9.75872 10.3355C8.94214 10.8812 7.9821 11.1724 7.00001 11.1724C5.68351 11.1709 4.42134 10.6473 3.49044 9.71643C2.55953 8.78552 2.03591 7.52335 2.03448 6.20685Z" fill="#5A2F8D"/>
</svg>
