<svg width="24" height="24" viewBox="0 0 24 24" fill="none" xmlns="http://www.w3.org/2000/svg">
<path d="M5.39999 2.09961H18.6C19.7 2.09961 20.6 2.99961 20.6 4.09961V6.29961C20.6 7.09961 20.1 8.09961 19.6 8.59961L15.3 12.3996C14.7 12.8996 14.3 13.8996 14.3 14.6996V18.9996C14.3 19.5996 13.9 20.3996 13.4 20.6996L12 21.5996C10.7 22.3996 8.89999 21.4996 8.89999 19.8996V14.5996C8.89999 13.8996 8.49999 12.9996 8.09999 12.4996L4.29999 8.49961C3.79999 7.99961 3.39999 7.09961 3.39999 6.49961V4.19961C3.39999 2.99961 4.29999 2.09961 5.39999 2.09961Z" stroke="#EDF2F7" stroke-width="1.5" stroke-miterlimit="10" stroke-linecap="round" stroke-linejoin="round"/>
<path d="M10.93 2.09961L6 9.99961" stroke="#EDF2F7" stroke-width="1.5" stroke-miterlimit="10" stroke-linecap="round" stroke-linejoin="round"/>
</svg>
