<svg width="32" height="32" viewBox="0 0 32 32" fill="none" xmlns="http://www.w3.org/2000/svg">
<path opacity="0.4" d="M28.1076 11.4399V20.5598C28.1076 22.0532 27.3076 23.4399 26.0142 24.1999L18.0942 28.7732C16.8009 29.5199 15.2009 29.5199 13.8942 28.7732L5.9742 24.1999C4.68087 23.4532 3.88086 22.0665 3.88086 20.5598V11.4399C3.88086 9.94655 4.68087 8.55983 5.9742 7.79983L13.8942 3.2265C15.1875 2.47984 16.7876 2.47984 18.0942 3.2265L26.0142 7.79983C27.3076 8.55983 28.1076 9.93322 28.1076 11.4399Z" fill="#DD6B20"/>
<path d="M16 18.3335C15.4533 18.3335 15 17.8802 15 17.3335V10.3335C15 9.78683 15.4533 9.3335 16 9.3335C16.5467 9.3335 17 9.78683 17 10.3335V17.3335C17 17.8802 16.5467 18.3335 16 18.3335Z" fill="#DD6B20"/>
<path d="M15.9993 23.0001C15.826 23.0001 15.6527 22.9601 15.4927 22.8934C15.3193 22.8268 15.186 22.7335 15.0527 22.6135C14.9327 22.4802 14.8394 22.3335 14.7594 22.1735C14.6927 22.0135 14.666 21.8401 14.666 21.6668C14.666 21.3201 14.7993 20.9734 15.0527 20.7201C15.186 20.6001 15.3193 20.5068 15.4927 20.4402C15.986 20.2268 16.5727 20.3468 16.946 20.7201C17.066 20.8534 17.1593 20.9868 17.226 21.1601C17.2927 21.3201 17.3327 21.4935 17.3327 21.6668C17.3327 21.8401 17.2927 22.0135 17.226 22.1735C17.1593 22.3335 17.066 22.4802 16.946 22.6135C16.6927 22.8668 16.3593 23.0001 15.9993 23.0001Z" fill="#DD6B20"/>
</svg>
