<svg width="82" height="104" viewBox="0 0 82 104" fill="none" xmlns="http://www.w3.org/2000/svg">
<g clip-path="url(#clip0_715_6786)">
<path d="M40.9998 104C24.5284 104 11.1758 102.403 11.1758 100.434C11.1758 98.4658 24.5284 96.8691 40.9998 96.8691C57.4712 96.8691 70.8239 98.4658 70.8239 100.434C70.8239 102.403 57.4712 104 40.9998 104Z" fill="#EDE9F7"/>
<path d="M42.6976 91.3144L51.1556 86.6955C70.1538 76.3233 82 56.2095 82 34.3305V12.2435C82 10.5244 80.6571 9.09642 78.9619 9.05021C58.9732 8.50029 46.5742 2.64986 42.4926 0.385471C41.5643 -0.129792 40.438 -0.129792 39.5097 0.385471C35.4281 2.64986 23.0268 8.50029 3.03815 9.05021C1.34287 9.09642 0 10.5244 0 12.2435V34.3328C0 56.2118 11.8462 76.3233 30.8444 86.6978L39.3024 91.3167C40.362 91.8944 41.638 91.8944 42.6976 91.3167V91.3144Z" fill="#EEEBF2"/>
<path d="M77.9458 14.8429V33.5864C77.9458 54.4511 66.7031 73.5505 48.6055 83.433L42.6052 86.7071C42.1054 86.9797 41.5526 87.1184 40.9998 87.1184C40.447 87.1184 39.8942 86.9797 39.3943 86.7071L33.394 83.433C15.2965 73.5505 4.05371 54.4511 4.05371 33.5864V14.8429C4.05371 13.9556 4.75394 13.2301 5.63382 13.1677C22.6603 12.0054 34.3523 7.4813 40.2673 4.5815C40.5023 4.46366 40.751 4.4082 40.9998 4.4082C41.2485 4.4082 41.495 4.46597 41.7322 4.5815C47.6473 7.4813 59.3415 12.0054 76.3657 13.1677C77.2479 13.2301 77.9458 13.9556 77.9458 14.8429Z" fill="#7647AB"/>
<path d="M77.9461 14.8429V33.5864C77.9461 54.4511 66.7033 73.5505 48.6057 83.433L42.6054 86.7071C42.1056 86.9797 41.5528 87.1184 41 87.1184V4.4082C41.2488 4.4082 41.4952 4.46597 41.7325 4.5815C47.6475 7.4813 59.3417 12.0054 76.366 13.1677C77.2481 13.2301 77.9461 13.9556 77.9461 14.8429Z" fill="#5A2F8D"/>
<path d="M55.051 38.3486H26.9521C25.2799 38.3486 23.9209 39.7119 23.9209 41.3894V63.8646C23.9209 65.5421 25.2799 66.9053 26.9521 66.9053H55.051C56.7232 66.9053 58.0822 65.5421 58.0822 63.8646V41.3894C58.0822 39.7119 56.7232 38.3486 55.051 38.3486ZM43.7115 54.0515V56.2974C43.7115 57.7992 42.4976 59.0169 41.0004 59.0169C39.5032 59.0169 38.2893 57.7992 38.2893 56.2974V54.0515C37.1376 53.2127 36.3913 51.8518 36.3913 50.3152C36.3913 47.762 38.4552 45.6917 41.0004 45.6917C43.5456 45.6917 45.6094 47.762 45.6094 50.3152C45.6094 51.8518 44.8631 53.215 43.7115 54.0515Z" fill="#EDE9F7"/>
<path d="M51.0315 29.9262V33.4499C51.0315 34.6514 50.0594 35.6264 48.8617 35.6264C47.6639 35.6264 46.6919 34.6514 46.6919 33.4499V30.0648C46.6919 26.9709 44.2987 24.3346 41.2168 24.2167C37.9783 24.0943 35.304 26.7006 35.304 29.9239V36.1694H30.9668V30.0879C30.9668 24.6049 35.2741 20.0022 40.74 19.8635C43.6146 19.7919 46.2174 20.9287 48.0924 22.8096C49.9097 24.6326 51.0315 27.1442 51.0315 29.9239V29.9262Z" fill="#EDE9F7"/>
</g>
<defs>
<clipPath id="clip0_715_6786">
<rect width="82" height="104" fill="white"/>
</clipPath>
</defs>
</svg>
