<svg width="124" height="124" viewBox="0 0 124 124" fill="none" xmlns="http://www.w3.org/2000/svg">
<rect x="0.5" y="0.5" width="123" height="123" rx="61.5" stroke="#CBD5E0" stroke-dasharray="3 2"/>
<circle cx="62" cy="62" r="58" fill="#EDF2F7"/>
<rect width="75" height="50" transform="translate(24.5 37)" fill="#EDF2F7"/>
<path d="M59 47C60.1046 47 61 46.1046 61 45C61 43.8954 60.1046 43 59 43C57.8954 43 57 43.8954 57 45C57 46.1046 57.8954 47 59 47Z" stroke="#A0AEC0" stroke-width="1.5" stroke-linecap="round" stroke-linejoin="round"/>
<path d="M63 39H59C54 39 52 41 52 46V52C52 57 54 59 59 59H65C70 59 72 57 72 52V47" stroke="#A0AEC0" stroke-width="1.5" stroke-linecap="round" stroke-linejoin="round"/>
<path d="M65.75 42H71.25" stroke="#A0AEC0" stroke-width="1.5" stroke-linecap="round"/>
<path d="M68.5 44.75V39.25" stroke="#A0AEC0" stroke-width="1.5" stroke-linecap="round"/>
<path d="M52.67 55.9496L57.6 52.6396C58.39 52.1096 59.53 52.1696 60.24 52.7796L60.57 53.0696C61.35 53.7396 62.61 53.7396 63.39 53.0696L67.55 49.4996C68.33 48.8296 69.59 48.8296 70.37 49.4996L72 50.8996" stroke="#A0AEC0" stroke-width="1.5" stroke-linecap="round" stroke-linejoin="round"/>
<path d="M32.363 79C32.363 79.668 32.253 80.234 32.033 80.698C31.813 81.162 31.469 81.516 31.001 81.76C30.537 82 29.933 82.12 29.189 82.12C28.437 82.12 27.827 81.996 27.359 81.748C26.895 81.5 26.555 81.136 26.339 80.656C26.127 80.176 26.021 79.586 26.021 78.886V73.324H27.173V79.054C27.173 79.754 27.347 80.278 27.695 80.626C28.043 80.974 28.541 81.148 29.189 81.148C29.625 81.148 29.995 81.072 30.299 80.92C30.607 80.768 30.841 80.538 31.001 80.23C31.165 79.918 31.247 79.526 31.247 79.054V73.324H32.363V79ZM34.1953 83.932V75.796H35.2993L35.3113 76.876C35.3833 76.748 35.4753 76.614 35.5873 76.474C35.7033 76.334 35.8433 76.204 36.0073 76.084C36.1753 75.964 36.3693 75.866 36.5893 75.79C36.8133 75.714 37.0673 75.676 37.3513 75.676C37.8473 75.676 38.2833 75.79 38.6593 76.018C39.0393 76.242 39.3353 76.586 39.5473 77.05C39.7593 77.514 39.8653 78.102 39.8653 78.814C39.8653 79.526 39.7613 80.128 39.5533 80.62C39.3493 81.108 39.0533 81.48 38.6653 81.736C38.2773 81.992 37.8093 82.12 37.2613 82.12C36.9853 82.12 36.7393 82.08 36.5233 82C36.3113 81.924 36.1253 81.824 35.9653 81.7C35.8093 81.572 35.6773 81.436 35.5693 81.292C35.4653 81.148 35.3793 81.01 35.3113 80.878V83.932H34.1953ZM37.0513 81.256C37.5633 81.256 37.9813 81.062 38.3053 80.674C38.6293 80.282 38.7913 79.674 38.7913 78.85C38.7913 78.142 38.6433 77.58 38.3473 77.164C38.0513 76.748 37.6193 76.54 37.0513 76.54C36.4753 76.54 36.0393 76.754 35.7433 77.182C35.4473 77.606 35.2993 78.162 35.2993 78.85C35.2993 79.294 35.3653 79.698 35.4973 80.062C35.6293 80.426 35.8253 80.716 36.0853 80.932C36.3453 81.148 36.6673 81.256 37.0513 81.256ZM42.8863 82.078C42.5503 82.078 42.2783 82.032 42.0703 81.94C41.8663 81.848 41.7083 81.724 41.5963 81.568C41.4883 81.412 41.4143 81.234 41.3743 81.034C41.3383 80.83 41.3203 80.62 41.3203 80.404V73.084H42.4123V80.296C42.4123 80.608 42.4723 80.842 42.5923 80.998C42.7163 81.154 42.8883 81.24 43.1083 81.256L43.4443 81.262V81.982C43.3523 82.01 43.2563 82.032 43.1563 82.048C43.0563 82.068 42.9663 82.078 42.8863 82.078ZM47.2668 82.12C46.6948 82.12 46.1948 81.998 45.7668 81.754C45.3388 81.506 45.0068 81.144 44.7708 80.668C44.5348 80.192 44.4168 79.61 44.4168 78.922C44.4168 78.274 44.5268 77.706 44.7468 77.218C44.9668 76.73 45.2888 76.352 45.7128 76.084C46.1408 75.812 46.6588 75.676 47.2668 75.676C47.8388 75.676 48.3348 75.802 48.7548 76.054C49.1788 76.302 49.5068 76.668 49.7388 77.152C49.9708 77.636 50.0868 78.226 50.0868 78.922C50.0868 79.554 49.9788 80.11 49.7628 80.59C49.5508 81.07 49.2348 81.446 48.8148 81.718C48.3988 81.986 47.8828 82.12 47.2668 82.12ZM47.2668 81.244C47.6388 81.244 47.9528 81.15 48.2088 80.962C48.4648 80.774 48.6588 80.504 48.7908 80.152C48.9228 79.8 48.9888 79.382 48.9888 78.898C48.9888 78.454 48.9308 78.056 48.8148 77.704C48.6988 77.348 48.5128 77.066 48.2568 76.858C48.0048 76.65 47.6748 76.546 47.2668 76.546C46.8908 76.546 46.5728 76.64 46.3128 76.828C46.0528 77.012 45.8548 77.28 45.7188 77.632C45.5868 77.984 45.5208 78.406 45.5208 78.898C45.5208 79.334 45.5808 79.73 45.7008 80.086C45.8208 80.442 46.0088 80.724 46.2648 80.932C46.5208 81.14 46.8548 81.244 47.2668 81.244ZM53.1848 82.12C52.7848 82.12 52.4308 82.05 52.1228 81.91C51.8148 81.766 51.5728 81.56 51.3968 81.292C51.2248 81.024 51.1388 80.7 51.1388 80.32C51.1388 79.632 51.3788 79.12 51.8588 78.784C52.3388 78.448 53.1088 78.268 54.1688 78.244L55.2788 78.214V77.728C55.2788 77.348 55.1648 77.048 54.9368 76.828C54.7088 76.604 54.3548 76.492 53.8748 76.492C53.5188 76.496 53.2048 76.58 52.9328 76.744C52.6648 76.908 52.4908 77.176 52.4108 77.548H51.4328C51.4568 77.144 51.5708 76.804 51.7748 76.528C51.9788 76.248 52.2628 76.036 52.6268 75.892C52.9948 75.748 53.4288 75.676 53.9288 75.676C54.4688 75.676 54.9168 75.752 55.2728 75.904C55.6328 76.056 55.9008 76.28 56.0768 76.576C56.2568 76.872 56.3468 77.236 56.3468 77.668V82H55.3988L55.3208 80.836C55.0808 81.32 54.7748 81.656 54.4028 81.844C54.0348 82.028 53.6288 82.12 53.1848 82.12ZM53.5208 81.322C53.7288 81.322 53.9348 81.284 54.1388 81.208C54.3468 81.132 54.5368 81.03 54.7088 80.902C54.8808 80.77 55.0168 80.624 55.1168 80.464C55.2208 80.3 55.2748 80.132 55.2788 79.96V78.898L54.3548 78.916C53.8828 78.924 53.4868 78.972 53.1668 79.06C52.8508 79.148 52.6128 79.286 52.4528 79.474C52.2968 79.662 52.2188 79.908 52.2188 80.212C52.2188 80.56 52.3388 80.832 52.5788 81.028C52.8228 81.224 53.1368 81.322 53.5208 81.322ZM60.4802 82.12C59.6762 82.12 59.0382 81.844 58.5662 81.292C58.0942 80.74 57.8582 79.934 57.8582 78.874C57.8582 78.23 57.9522 77.668 58.1402 77.188C58.3322 76.708 58.6162 76.336 58.9922 76.072C59.3682 75.808 59.8362 75.676 60.3962 75.676C60.6922 75.676 60.9542 75.714 61.1822 75.79C61.4142 75.866 61.6142 75.962 61.7822 76.078C61.9502 76.194 62.0862 76.314 62.1902 76.438C62.2982 76.562 62.3782 76.676 62.4302 76.78V73.084H63.5462V82H62.7002L62.5802 80.728C62.5402 80.848 62.4762 80.988 62.3882 81.148C62.3002 81.304 62.1762 81.458 62.0162 81.61C61.8562 81.758 61.6502 81.88 61.3982 81.976C61.1502 82.072 60.8442 82.12 60.4802 82.12ZM60.6782 81.268C61.3062 81.268 61.7542 81.078 62.0222 80.698C62.2942 80.314 62.4302 79.688 62.4302 78.82C62.4262 78.336 62.3642 77.924 62.2442 77.584C62.1282 77.244 61.9442 76.986 61.6922 76.81C61.4442 76.63 61.1142 76.54 60.7022 76.54C60.1902 76.54 59.7742 76.722 59.4542 77.086C59.1342 77.45 58.9742 78.028 58.9742 78.82C58.9742 79.596 59.1182 80.198 59.4062 80.626C59.6982 81.054 60.1222 81.268 60.6782 81.268ZM68.1446 83.932V75.796H69.2486L69.2606 76.876C69.3326 76.748 69.4246 76.614 69.5366 76.474C69.6526 76.334 69.7926 76.204 69.9566 76.084C70.1246 75.964 70.3186 75.866 70.5386 75.79C70.7626 75.714 71.0166 75.676 71.3006 75.676C71.7966 75.676 72.2326 75.79 72.6086 76.018C72.9886 76.242 73.2846 76.586 73.4966 77.05C73.7086 77.514 73.8146 78.102 73.8146 78.814C73.8146 79.526 73.7106 80.128 73.5026 80.62C73.2986 81.108 73.0026 81.48 72.6146 81.736C72.2266 81.992 71.7586 82.12 71.2106 82.12C70.9346 82.12 70.6886 82.08 70.4726 82C70.2606 81.924 70.0746 81.824 69.9146 81.7C69.7586 81.572 69.6266 81.436 69.5186 81.292C69.4146 81.148 69.3286 81.01 69.2606 80.878V83.932H68.1446ZM71.0006 81.256C71.5126 81.256 71.9306 81.062 72.2546 80.674C72.5786 80.282 72.7406 79.674 72.7406 78.85C72.7406 78.142 72.5926 77.58 72.2966 77.164C72.0006 76.748 71.5686 76.54 71.0006 76.54C70.4246 76.54 69.9886 76.754 69.6926 77.182C69.3966 77.606 69.2486 78.162 69.2486 78.85C69.2486 79.294 69.3146 79.698 69.4466 80.062C69.5786 80.426 69.7746 80.716 70.0346 80.932C70.2946 81.148 70.6166 81.256 71.0006 81.256ZM75.2696 82V73.084H76.3496V76.708C76.4536 76.536 76.5936 76.376 76.7696 76.228C76.9456 76.076 77.1596 75.954 77.4116 75.862C77.6636 75.766 77.9556 75.718 78.2876 75.718C78.6916 75.718 79.0576 75.794 79.3856 75.946C79.7136 76.094 79.9736 76.306 80.1656 76.582C80.3576 76.858 80.4536 77.186 80.4536 77.566V82H79.3436V77.788C79.3436 77.416 79.2156 77.13 78.9596 76.93C78.7076 76.726 78.3776 76.624 77.9696 76.624C77.6936 76.624 77.4336 76.67 77.1896 76.762C76.9456 76.85 76.7476 76.986 76.5956 77.17C76.4476 77.35 76.3736 77.58 76.3736 77.86V82H75.2696ZM84.6496 82.12C84.0776 82.12 83.5776 81.998 83.1496 81.754C82.7216 81.506 82.3896 81.144 82.1536 80.668C81.9176 80.192 81.7996 79.61 81.7996 78.922C81.7996 78.274 81.9096 77.706 82.1296 77.218C82.3496 76.73 82.6716 76.352 83.0956 76.084C83.5236 75.812 84.0416 75.676 84.6496 75.676C85.2216 75.676 85.7176 75.802 86.1376 76.054C86.5616 76.302 86.8896 76.668 87.1216 77.152C87.3536 77.636 87.4696 78.226 87.4696 78.922C87.4696 79.554 87.3616 80.11 87.1456 80.59C86.9336 81.07 86.6176 81.446 86.1976 81.718C85.7816 81.986 85.2656 82.12 84.6496 82.12ZM84.6496 81.244C85.0216 81.244 85.3356 81.15 85.5916 80.962C85.8476 80.774 86.0416 80.504 86.1736 80.152C86.3056 79.8 86.3716 79.382 86.3716 78.898C86.3716 78.454 86.3136 78.056 86.1976 77.704C86.0816 77.348 85.8956 77.066 85.6396 76.858C85.3876 76.65 85.0576 76.546 84.6496 76.546C84.2736 76.546 83.9556 76.64 83.6956 76.828C83.4356 77.012 83.2376 77.28 83.1016 77.632C82.9696 77.984 82.9036 78.406 82.9036 78.898C82.9036 79.334 82.9636 79.73 83.0836 80.086C83.2036 80.442 83.3916 80.724 83.6476 80.932C83.9036 81.14 84.2376 81.244 84.6496 81.244ZM91.8747 76.606H90.4767V80.464C90.4767 80.684 90.4987 80.846 90.5427 80.95C90.5907 81.05 90.6687 81.114 90.7767 81.142C90.8887 81.17 91.0407 81.184 91.2327 81.184H91.9107V81.928C91.8347 81.956 91.7187 81.98 91.5627 82C91.4107 82.02 91.2207 82.03 90.9927 82.03C90.5647 82.03 90.2327 81.972 89.9967 81.856C89.7607 81.74 89.5947 81.568 89.4987 81.34C89.4067 81.112 89.3607 80.832 89.3607 80.5V76.606H88.3527V75.796H89.3907L89.6607 73.99H90.4767V75.79H91.8747V76.606ZM95.7707 82.12C95.1987 82.12 94.6987 81.998 94.2707 81.754C93.8427 81.506 93.5107 81.144 93.2747 80.668C93.0387 80.192 92.9207 79.61 92.9207 78.922C92.9207 78.274 93.0307 77.706 93.2507 77.218C93.4707 76.73 93.7927 76.352 94.2167 76.084C94.6447 75.812 95.1627 75.676 95.7707 75.676C96.3427 75.676 96.8387 75.802 97.2587 76.054C97.6827 76.302 98.0107 76.668 98.2427 77.152C98.4747 77.636 98.5907 78.226 98.5907 78.922C98.5907 79.554 98.4827 80.11 98.2667 80.59C98.0547 81.07 97.7387 81.446 97.3187 81.718C96.9027 81.986 96.3867 82.12 95.7707 82.12ZM95.7707 81.244C96.1427 81.244 96.4567 81.15 96.7127 80.962C96.9687 80.774 97.1627 80.504 97.2947 80.152C97.4267 79.8 97.4927 79.382 97.4927 78.898C97.4927 78.454 97.4347 78.056 97.3187 77.704C97.2027 77.348 97.0167 77.066 96.7607 76.858C96.5087 76.65 96.1787 76.546 95.7707 76.546C95.3947 76.546 95.0767 76.64 94.8167 76.828C94.5567 77.012 94.3587 77.28 94.2227 77.632C94.0907 77.984 94.0247 78.406 94.0247 78.898C94.0247 79.334 94.0847 79.73 94.2047 80.086C94.3247 80.442 94.5127 80.724 94.7687 80.932C95.0247 81.14 95.3587 81.244 95.7707 81.244Z" fill="#A0AEC0"/>
</svg>
