<svg width="56" height="56" viewBox="0 0 56 56" fill="none" xmlns="http://www.w3.org/2000/svg">
<rect x="0.5" y="0.5" width="55" height="55" rx="3.5" fill="#F9FAFB"/>
<path d="M34 26.5H29.5V22C29.5 21.4688 29.0312 21 28.5 21H27.5C26.9375 21 26.5 21.4688 26.5 22V26.5H22C21.4375 26.5 21 26.9688 21 27.5V28.5C21 29.0625 21.4375 29.5 22 29.5H26.5V34C26.5 34.5625 26.9375 35 27.5 35H28.5C29.0312 35 29.5 34.5625 29.5 34V29.5H34C34.5312 29.5 35 29.0625 35 28.5V27.5C35 26.9688 34.5312 26.5 34 26.5Z" fill="#D1D5DB"/>
<rect x="0.5" y="0.5" width="55" height="55" rx="3.5" stroke="#D1D5DB" stroke-dasharray="5 5"/>
</svg>
