<svg width="18" height="18" viewBox="0 0 18 18" fill="#5A2F8D" xmlns="http://www.w3.org/2000/svg">
<path d="M17.28 0H12.9603C12.7693 0 12.5862 0.0758532 12.4512 0.210873C12.3161 0.345892 12.2403 0.529017 12.2403 0.719963C12.2403 0.910909 12.3161 1.09403 12.4512 1.22905C12.5862 1.36407 12.7693 1.43993 12.9603 1.43993H15.5422L11.7561 5.22603C10.326 4.05706 8.50132 3.48244 6.65944 3.62103C4.81757 3.75961 3.09941 4.6008 1.86032 5.97062C0.62124 7.34043 -0.0439762 9.13407 0.00225818 10.9806C0.0484925 12.8271 0.802641 14.5852 2.10873 15.8913C3.41481 17.1974 5.17292 17.9515 7.01942 17.9977C8.86593 18.044 10.6596 17.3788 12.0294 16.1397C13.3992 14.9006 14.2404 13.1824 14.379 11.3406C14.5176 9.49868 13.9429 7.67399 12.774 6.24388L16.5601 2.45867V5.03974C16.5601 5.23069 16.6359 5.41381 16.7709 5.54883C16.906 5.68385 17.0891 5.75971 17.28 5.75971C17.471 5.75971 17.6541 5.68385 17.7891 5.54883C17.9241 5.41381 18 5.23069 18 5.03974V0.719963C18 0.529017 17.9241 0.345892 17.7891 0.210873C17.6541 0.0758532 17.471 0 17.28 0ZM11.2719 14.8753C10.4663 15.6806 9.44005 16.2289 8.32284 16.4509C7.20564 16.673 6.04769 16.5587 4.99539 16.1227C3.94309 15.6867 3.0437 14.9485 2.41093 14.0014C1.77816 13.0542 1.44042 11.9408 1.44042 10.8017C1.44042 9.66265 1.77816 8.54917 2.41093 7.60205C3.0437 6.65492 3.94309 5.91669 4.99539 5.48067C6.04769 5.04466 7.20564 4.93045 8.32284 5.15247C9.44005 5.37451 10.4663 5.92281 11.2719 6.72806C12.3505 7.80945 12.9561 9.27441 12.9561 10.8017C12.9561 12.329 12.3505 13.7939 11.2719 14.8753Z" fill="#5A2F8D"/>
</svg>
