<svg width="50" height="31" viewBox="0 0 50 31" fill="none" xmlns="http://www.w3.org/2000/svg">
<g clip-path="url(#clip0_715_6409)">
<path fill-rule="evenodd" clip-rule="evenodd" d="M18.0527 27.1039H31.4349V3.24414H18.0527V27.1039Z" fill="#FF5F00"/>
<path fill-rule="evenodd" clip-rule="evenodd" d="M18.9028 15.1742C18.9028 10.3336 21.1871 6.02247 24.7442 3.24432C22.1425 1.21225 18.8603 0 15.2926 0C6.84655 0 0 6.79382 0 15.1742C0 23.5545 6.84655 30.3484 15.2926 30.3484C18.8603 30.3484 22.1425 29.1361 24.7442 27.104C21.1871 24.3255 18.9028 20.0147 18.9028 15.1742Z" fill="#EB001B"/>
<path fill-rule="evenodd" clip-rule="evenodd" d="M49.0108 24.5771V23.9883H48.8558L48.6778 24.3933L48.4993 23.9883H48.3443V24.5771H48.4535V24.1329L48.6208 24.516H48.7343L48.9017 24.132V24.5771H49.0108ZM48.0291 24.5771V24.0886H48.2279V23.9891H47.7223V24.0886H47.9207V24.5771H48.0291ZM49.4883 15.1742C49.4883 23.5545 42.6414 30.3484 34.1958 30.3484C30.628 30.3484 27.3454 29.1361 24.7441 27.104C28.3012 24.3259 30.5855 20.0147 30.5855 15.1742C30.5855 10.334 28.3012 6.02289 24.7441 3.24432C27.3454 1.21225 30.628 0 34.1958 0C42.6414 0 49.4883 6.79382 49.4883 15.1742Z" fill="#F79E1B"/>
</g>
<defs>
<clipPath id="clip0_715_6409">
<rect width="50" height="30.3922" fill="white"/>
</clipPath>
</defs>
</svg>
