<svg width="20" height="20" viewBox="0 0 20 20" fill="none" xmlns="http://www.w3.org/2000/svg">
<path d="M14.0833 15.8424C13.825 15.8424 13.5667 15.7674 13.3417 15.6174L12.5417 15.0924C12.3167 14.9424 12.2084 14.6591 12.2834 14.4008C12.3417 14.2091 12.3667 13.9841 12.3667 13.7341V10.3424C12.3667 8.98408 11.5167 8.13411 10.1584 8.13411H4.50002C4.40002 8.13411 4.30835 8.14246 4.21668 8.1508C4.04169 8.15913 3.87502 8.10079 3.74169 7.98412C3.60836 7.86745 3.54169 7.7008 3.54169 7.5258V5.21745C3.54169 2.76745 5.25835 1.05078 7.70835 1.05078H14.7917C17.2417 1.05078 18.9584 2.76745 18.9584 5.21745V9.46743C18.9584 10.6758 18.55 11.7424 17.8 12.4757C17.2 13.0841 16.3667 13.4758 15.4167 13.5924V14.5174C15.4167 15.0174 15.1417 15.4675 14.7083 15.7008C14.5083 15.7925 14.2917 15.8424 14.0833 15.8424ZM13.5834 14.2758L14.125 14.5841C14.175 14.5591 14.175 14.5174 14.175 14.5091V13.0008C14.175 12.6591 14.4583 12.3758 14.8 12.3758C15.675 12.3758 16.4167 12.1008 16.925 11.5841C17.45 11.0675 17.7167 10.3341 17.7167 9.45909V5.20911C17.7167 3.43411 16.575 2.29244 14.8 2.29244H7.71668C5.94168 2.29244 4.80002 3.43411 4.80002 5.20911V6.87577H10.1667C12.2 6.87577 13.625 8.30079 13.625 10.3341V13.7257C13.6167 13.9174 13.6084 14.1008 13.5834 14.2758Z" fill="#5A2F8D"/>
<path d="M5.05836 18.9583C4.87503 18.9583 4.68336 18.9167 4.50836 18.825C4.11669 18.6167 3.87502 18.2167 3.87502 17.7667V17.1333C3.14168 17.0167 2.49169 16.7083 2.00836 16.225C1.37502 15.5916 1.04169 14.725 1.04169 13.725V10.3334C1.04169 8.45002 2.27501 7.06668 4.10835 6.89168C4.24168 6.88335 4.36668 6.875 4.50002 6.875H10.1584C12.1917 6.875 13.6167 8.30002 13.6167 10.3334V13.725C13.6167 14.0916 13.575 14.4333 13.4833 14.7417C13.1083 16.2417 11.8334 17.1833 10.1584 17.1833H8.08335L5.72502 18.75C5.52502 18.8917 5.29169 18.9583 5.05836 18.9583ZM4.50002 8.125C4.40002 8.125 4.30835 8.13335 4.21668 8.14168C3.01668 8.25002 2.29169 9.07502 2.29169 10.3334V13.725C2.29169 14.3916 2.50002 14.95 2.89169 15.3416C3.27502 15.725 3.83335 15.9333 4.50002 15.9333C4.84168 15.9333 5.12502 16.2167 5.12502 16.5583V17.65L7.54169 16.0417C7.64169 15.975 7.76669 15.9333 7.89169 15.9333H10.1584C11.2584 15.9333 12.0333 15.3833 12.275 14.4167C12.3334 14.2083 12.3667 13.975 12.3667 13.725V10.3334C12.3667 8.97502 11.5167 8.125 10.1584 8.125H4.50002Z" fill="#5A2F8D"/>
</svg>
