<svg width="20" height="21" viewBox="0 0 20 21" fill="none" xmlns="http://www.w3.org/2000/svg">
<path d="M9.99999 19.5077C9.42499 19.5077 8.88332 19.216 8.49999 18.7077L7.24999 17.041C7.22499 17.0077 7.12499 16.966 7.08332 16.9577H6.66666C3.19166 16.9577 1.04166 16.016 1.04166 11.3327V7.16602C1.04166 3.48268 2.98332 1.54102 6.66666 1.54102H13.3333C17.0167 1.54102 18.9583 3.48268 18.9583 7.16602V11.3327C18.9583 15.016 17.0167 16.9577 13.3333 16.9577H12.9167C12.85 16.9577 12.7917 16.991 12.75 17.041L11.5 18.7077C11.1167 19.216 10.575 19.5077 9.99999 19.5077ZM6.66666 2.79102C3.68332 2.79102 2.29166 4.18268 2.29166 7.16602V11.3327C2.29166 15.0993 3.58332 15.7077 6.66666 15.7077H7.08332C7.50832 15.7077 7.99166 15.9494 8.24999 16.291L9.49999 17.9577C9.79166 18.341 10.2083 18.341 10.5 17.9577L11.75 16.291C12.025 15.9244 12.4583 15.7077 12.9167 15.7077H13.3333C16.3167 15.7077 17.7083 14.316 17.7083 11.3327V7.16602C17.7083 4.18268 16.3167 2.79102 13.3333 2.79102H6.66666Z" fill="#5A2F8D"/>
<path d="M14.1667 7.79102H5.83334C5.49168 7.79102 5.20834 7.50768 5.20834 7.16602C5.20834 6.82435 5.49168 6.54102 5.83334 6.54102H14.1667C14.5083 6.54102 14.7917 6.82435 14.7917 7.16602C14.7917 7.50768 14.5083 7.79102 14.1667 7.79102Z" fill="#5A2F8D"/>
<path d="M10.8333 11.959H5.83334C5.49168 11.959 5.20834 11.6757 5.20834 11.334C5.20834 10.9923 5.49168 10.709 5.83334 10.709H10.8333C11.175 10.709 11.4583 10.9923 11.4583 11.334C11.4583 11.6757 11.175 11.959 10.8333 11.959Z" fill="#5A2F8D"/>
</svg>
