<svg width="108" height="107" viewBox="0 0 108 107" fill="none" xmlns="http://www.w3.org/2000/svg">
<g id="Group">
<path id="Vector" fill-rule="evenodd" clip-rule="evenodd" d="M53.9763 5.53564C80.4495 5.53564 101.965 27.003 101.965 53.4762C101.965 79.9494 80.4495 101.465 53.9763 101.465C27.5031 101.465 6.03571 79.9973 6.03571 53.4762C6.03571 26.9551 27.5031 5.53564 53.9763 5.53564Z" fill="white"/>
<path id="Vector_2" fill-rule="evenodd" clip-rule="evenodd" d="M26.925 31.6719H81.0266C84.5401 31.6719 87.3798 34.5594 87.3798 38.0251V68.9265C87.3798 72.4405 84.5401 75.2802 81.0266 75.2802H26.925C23.4593 75.2802 20.5713 72.4405 20.5713 68.9265V38.0251C20.5713 34.5594 23.4593 31.6719 26.925 31.6719Z" fill="#5A2F8D"/>
<path id="Vector_3" fill-rule="evenodd" clip-rule="evenodd" d="M27.5988 42.1162H39.2952C40.5947 42.1162 41.6536 43.1751 41.6536 44.4746V50.7799C41.6536 52.0314 40.5947 53.0903 39.2952 53.0903H27.5988C26.2993 53.0903 25.2404 52.0314 25.2404 50.7799V44.4746C25.2404 43.1751 26.2993 42.1162 27.5988 42.1162Z" fill="#F2F6FA"/>
<path id="Vector_4" fill-rule="evenodd" clip-rule="evenodd" d="M25.2404 45.1973H41.6536V46.3525H25.2404V45.1973ZM25.2404 48.9035H41.6536V50.0108H25.2404V48.9035Z" fill="#EFEAF4"/>
<path id="Vector_5" fill-rule="evenodd" clip-rule="evenodd" d="M37.274 42.1162V53.0908H36.1667V42.1162H37.274ZM30.7281 42.1162V53.0908H29.6208V42.1162H30.7281Z" fill="#EFEAF4"/>
<path id="Vector_6" fill-rule="evenodd" clip-rule="evenodd" d="M75.0101 37.8809H81.1711C81.8935 37.8809 82.519 38.4585 82.519 39.1804V42.5497C82.519 43.2716 81.8935 43.8492 81.1711 43.8492H75.0101C74.2882 43.8492 73.7106 43.2716 73.7106 42.5497V39.1804C73.7106 38.4585 74.2882 37.8809 75.0101 37.8809ZM58.26 37.8809H70.0043C70.7262 37.8809 71.3038 38.4585 71.3038 39.1804V42.5497C71.3038 43.2716 70.7262 43.8492 70.0043 43.8492H58.26C57.5381 43.8492 56.9604 43.2716 56.9604 42.5497V39.1804C56.9604 38.4585 57.5381 37.8809 58.26 37.8809Z" fill="#B39FCB"/>
<path id="Vector_7" fill-rule="evenodd" clip-rule="evenodd" d="M41.509 57.7119H51.0393C52.0018 57.7119 52.82 58.5302 52.82 59.5406V61.4182C52.82 62.4287 52.0018 63.199 51.0393 63.199H41.509C40.5464 63.199 39.7282 62.4287 39.7282 61.4182V59.5406C39.7282 58.5302 40.5464 57.7119 41.509 57.7119ZM26.4916 57.7119H36.0219C37.0329 57.7119 37.8027 58.5302 37.8027 59.5406V61.4182C37.8027 62.4287 37.0329 63.199 36.0219 63.199H26.4916C25.5291 63.199 24.7108 62.4287 24.7108 61.4182V59.5406C24.7108 58.5302 25.5291 57.7119 26.4916 57.7119ZM56.5268 57.7119H66.0571C67.0196 57.7119 67.8379 58.5302 67.8379 59.5406V61.4182C67.8379 62.4287 67.0196 63.199 66.0571 63.199H56.5268C55.5159 63.199 54.746 62.4287 54.746 61.4182V59.5406C54.746 58.5302 55.5159 57.7119 56.5268 57.7119ZM71.5441 57.7119H81.0265C82.037 57.7119 82.8552 58.5302 82.8552 59.5406V61.4182C82.8552 62.4287 82.037 63.199 81.0265 63.199H71.5441C70.5332 63.199 69.715 62.4287 69.715 61.4182V59.5406C69.715 58.5302 70.5332 57.7119 71.5441 57.7119Z" fill="#B39FCB"/>
<path id="Vector_8" d="M107.5 53.476C107.5 23.9221 83.53 0 53.976 0C24.4221 0 0.5 23.9221 0.5 53.476C0.5 83.03 24.4221 107 53.976 107C83.53 107 107.5 83.03 107.5 53.476ZM25.9143 19.0127C33.6159 12.7553 43.2905 9.04905 53.976 9.04905C78.5242 9.04905 98.451 28.9279 98.451 53.476C98.451 63.4397 95.2259 73.259 88.4394 81.5857C67.5975 60.6959 46.7562 39.8541 25.9143 19.0127ZM82.0378 87.9873C74.3366 94.2447 64.6616 97.951 53.976 97.951C29.4284 97.951 9.54905 78.0237 9.54905 53.476C9.54905 43.5608 12.7741 33.6935 19.5127 25.4143C40.3545 46.2562 61.1964 67.098 82.0378 87.9873Z" fill="#E75145"/>
</g>
</svg>
