<svg width="344" height="287" viewBox="0 0 344 287" fill="none" xmlns="http://www.w3.org/2000/svg">
<g clip-path="url(#clip0_715_13868)">
<path d="M171.998 287C266.714 287 343.496 259.865 343.496 226.391C343.496 192.918 266.714 165.782 171.998 165.782C77.2823 165.782 0.5 192.918 0.5 226.391C0.5 259.865 77.2823 287 171.998 287Z" fill="url(#paint0_linear_715_13868)"/>
<path d="M282.803 138.62C282.76 138.306 282.656 138.003 282.495 137.73C282.334 137.457 282.12 137.218 281.865 137.029C281.611 136.839 281.321 136.702 281.013 136.626C280.705 136.55 280.384 136.536 280.071 136.585C279.757 136.634 279.456 136.745 279.186 136.912C278.916 137.078 278.682 137.297 278.498 137.555C278.314 137.813 278.183 138.106 278.113 138.415C278.044 138.724 278.037 139.044 278.093 139.356C278.432 141.572 278.873 148.514 276.469 151.307C275.974 151.899 275.281 152.293 274.518 152.417L274.737 139.196C274.75 138.735 274.671 138.276 274.503 137.846C274.335 137.416 274.083 137.024 273.76 136.694C273.437 136.364 273.052 136.101 272.625 135.923C272.199 135.744 271.741 135.653 271.279 135.655C270.817 135.657 270.36 135.752 269.935 135.934C269.51 136.115 269.127 136.381 268.807 136.714C268.487 137.046 268.237 137.44 268.073 137.871C267.908 138.303 267.832 138.762 267.85 139.224L268.474 164.318C267.686 164.204 266.968 163.804 266.457 163.196C264.057 160.403 264.506 153.457 264.833 151.245C264.931 150.622 264.777 149.986 264.405 149.476C264.033 148.966 263.473 148.625 262.849 148.528C262.225 148.43 261.588 148.584 261.077 148.955C260.567 149.327 260.225 149.886 260.127 150.509C259.956 151.599 258.567 161.322 262.832 166.285C263.547 167.124 264.427 167.808 265.418 168.295C266.408 168.781 267.488 169.06 268.591 169.113L268.864 180.02H274.077L274.468 157.205C275.549 157.137 276.606 156.852 277.574 156.368C278.543 155.883 279.404 155.209 280.106 154.385C284.352 149.433 282.974 139.714 282.803 138.62Z" fill="#5A2F8D"/>
<path d="M60.7526 159.892C60.7218 159.695 60.6526 159.507 60.5488 159.337C60.445 159.167 60.3086 159.019 60.1476 158.901C59.9865 158.784 59.8039 158.699 59.6101 158.652C59.4163 158.606 59.2151 158.597 59.0181 158.628C58.8211 158.659 58.632 158.728 58.4617 158.831C58.2915 158.935 58.1433 159.071 58.0257 159.232C57.9082 159.393 57.8235 159.575 57.7765 159.768C57.7295 159.962 57.7211 160.163 57.7519 160.359C57.9665 161.773 58.2435 166.203 56.7139 167.979C56.4002 168.351 55.9622 168.597 55.4808 168.672L55.6213 160.246C55.6338 159.951 55.5862 159.656 55.4816 159.379C55.3769 159.103 55.2172 158.85 55.0122 158.636C54.8071 158.423 54.5609 158.253 54.2884 158.137C54.0159 158.021 53.7226 157.961 53.4264 157.961C53.1301 157.961 52.8368 158.021 52.5643 158.137C52.2918 158.253 52.0456 158.423 51.8405 158.636C51.6355 158.85 51.4758 159.103 51.3711 159.379C51.2665 159.656 51.2189 159.951 51.2314 160.246L51.6216 176.245C51.1188 176.172 50.6604 175.917 50.3339 175.528C48.8043 173.748 49.0813 169.323 49.2999 167.909C49.3306 167.712 49.3222 167.511 49.2753 167.318C49.2283 167.124 49.1436 166.942 49.026 166.781C48.9084 166.62 48.7602 166.484 48.59 166.381C48.4197 166.277 48.2307 166.208 48.0336 166.177C47.8366 166.147 47.6354 166.155 47.4416 166.202C47.2478 166.249 47.0652 166.333 46.9041 166.451C46.7431 166.568 46.6067 166.716 46.5029 166.886C46.3991 167.056 46.3299 167.245 46.2991 167.441C46.1899 168.139 45.3119 174.332 48.0239 177.499C48.4799 178.034 49.0411 178.47 49.6727 178.78C50.3043 179.089 50.9929 179.266 51.6958 179.299L51.8675 186.26H55.1843L55.4223 171.715C56.1124 171.673 56.7869 171.493 57.4052 171.184C58.0236 170.876 58.5729 170.445 59.02 169.919C61.7398 166.783 60.8618 160.585 60.7526 159.892Z" fill="#5A2F8D"/>
<path d="M199.375 152.924C199.375 152.924 199.278 158.767 199.375 159.339C199.473 159.912 197.089 163.344 196.113 163.192C195.138 163.04 193.19 162.717 192.906 162.393C192.621 162.07 192.75 161.303 192.851 160.601C192.952 159.9 193.678 153.551 193.678 153.227C193.678 152.904 198.291 152.035 199.375 152.924Z" fill="#FFD3BC"/>
<path d="M195.606 159.004C194.385 159.663 193.702 161.665 193.526 161.692C193.35 161.72 193.03 161.665 193.03 161.47C193.03 161.275 193.081 160.602 192.859 160.602C192.636 160.602 192.387 161.692 192.336 163.274C192.285 164.855 191.723 168.634 192.336 169.117C192.726 169.421 196.238 171.271 196.351 171.517C196.464 171.762 196.277 173.499 196.578 173.772C196.878 174.045 197.569 174.711 198.111 174.734C198.653 174.758 201.806 175.081 203.293 174.734C204.78 174.388 206.664 173.671 206.711 173.472C206.758 173.273 206.341 169.07 205.868 168.548C205.396 168.026 202.005 163.379 201.732 162.958C201.428 162.324 201.267 161.632 201.26 160.929C201.26 160.333 200.722 159.039 199.699 158.728C198.677 158.416 196.511 158.51 195.606 159.004Z" fill="url(#paint1_linear_715_13868)"/>
<path d="M163.765 156.297C163.765 156.297 163.765 159.693 163.667 160.278C163.569 160.862 165.954 164.278 166.929 164.13C167.905 163.982 169.856 163.651 170.137 163.328C170.418 163.004 170.293 162.237 170.191 161.54C170.09 160.842 169.462 156.924 169.462 156.596C169.462 156.269 164.849 155.428 163.765 156.297Z" fill="#FFD3BC"/>
<path d="M166.906 81.3447C165.524 86.3542 162.914 103.521 162.914 111.865C162.914 120.209 162.079 141.471 162.079 144.712C162.079 147.953 161.728 155.966 162.567 156.398C163.406 156.83 165.357 158.069 168.006 157.652C170.656 157.236 171.354 155.564 171.421 154.03C171.487 152.495 172.119 141.498 172.747 137.252C173.375 133.006 175.607 124.814 177.071 119.547C178.534 114.281 181.952 103.685 182.862 103.724C183.771 103.763 189.413 126.976 189.885 128.289C190.357 129.601 191.251 148.296 191.31 149.861C191.368 151.427 191.31 152.943 192.301 153.582C193.292 154.22 196.312 155.786 197.885 155.919C199.457 156.051 200.503 153.539 200.792 152.783C201.081 152.027 201.599 127.03 201.412 120.174C201.225 113.318 201.771 100.53 201.455 96.3577C201.139 92.1857 200.113 83.2534 199.465 81.3758C198.817 79.4982 166.906 81.3447 166.906 81.3447Z" fill="#321A4E"/>
<path d="M157.154 23.0962C158.473 21.6354 164.623 14.7171 165.84 14.4717C167.058 14.2263 170.031 13.6926 170.695 13.0109C171.358 12.3292 174.144 3.55281 173.048 1.94789C171.951 0.342976 167.663 0.802637 166.363 3.50607C165.064 6.2095 165.134 7.64691 162.996 9.52451C160.857 11.4021 151.535 19.006 150.665 19.7773C149.795 20.5486 151.512 24.2999 152.882 24.931C154.251 25.562 157.154 23.0962 157.154 23.0962Z" fill="url(#paint2_linear_715_13868)"/>
<path d="M174.144 25.204C171.003 25.8624 165.782 26.4194 164.061 26.9726C162.34 27.5257 155.547 29.9097 155.597 28.8969C155.648 27.8841 158.719 23.4433 158.181 22.9798C157.642 22.5162 154.279 21.9669 153.724 21.258C153.17 20.549 152.406 18.8818 151.645 19.0843C150.884 19.2869 142.073 27.479 142.67 30.6148C144.09 38.0161 164.912 43.3996 165.392 46.6289C165.872 49.8582 163.776 80.7802 164.916 81.9216C166.055 83.0629 178.128 87.4219 184.208 87.8037C190.287 88.1854 200.96 86.0663 201.545 84.4692C202.13 82.872 198.575 52.1371 198.989 52.1371C199.403 52.1371 199.516 61.8133 204.148 64.3142C207.207 65.9659 211.413 64.2636 212.221 63.352C213.029 62.4405 209.345 49.5817 207.679 45.2461C206.013 40.9104 204.432 31.9431 200.679 28.7645C196.925 25.5858 191.598 26.1273 189.753 25.3793C187.907 24.6314 181.781 25.1651 180.235 24.9898C178.69 24.8145 174.144 25.204 174.144 25.204Z" fill="#5A2F8D"/>
<path d="M213.388 57.5397C213.388 57.5397 207.972 59.1719 207.535 59.7367C207.098 60.3015 206.364 62.5492 207.535 63.4841C208.705 64.419 209.993 65.1241 211.386 64.0412C212.779 62.9582 214.047 61.5052 214.855 61.3143C215.663 61.1235 218.066 61.4741 219.077 61.0806C220.088 60.6872 222.004 53.0366 221.231 52.573C220.458 52.1094 213.388 57.5397 213.388 57.5397Z" fill="url(#paint3_linear_715_13868)"/>
<path d="M174.172 24.1714C172.423 23.8092 169.048 20.5136 168.74 17.1597C168.439 13.8953 166.036 4.72932 174.398 1.29355C182.245 -1.93187 190.322 1.38704 191.481 5.36428C192.566 9.07663 183.353 9.25971 179.978 11.6632C176.603 14.0667 176.372 15.6911 175.529 15.3093C174.687 14.9276 174.172 24.1714 174.172 24.1714Z" fill="#E64D4E"/>
<path d="M174.031 17.6386C173.918 19.1344 173.543 26.3605 174.168 27.4239C174.745 28.4017 175.768 31.2375 179.779 31.1129C183.79 30.9882 186.389 26.9837 186.612 26.5163C186.834 26.0488 186.358 20.2563 186.358 19.2902C186.358 18.3242 180.969 16.0376 178.827 16.0999C176.685 16.1622 174.144 16.2362 174.031 17.6386Z" fill="url(#paint4_linear_715_13868)"/>
<path d="M174.398 17.6627C174.851 17.6627 174.316 20.3895 175.135 21.3011C175.955 22.2126 179.521 26.8793 183.299 26.4353C186.561 26.0457 186.093 23.2332 186.561 20.9193C186.99 18.8236 188.348 18.6405 188.824 13.1635C189.007 11.0405 189.995 7.70991 188.168 7.10612C186.342 6.50233 179.396 4.85845 177.676 7.10612C175.955 9.35378 175.791 14.7567 174.89 14.0634C173.988 13.37 172.103 9.97316 170.987 11.8118C169.871 13.6504 171.982 17.7329 174.398 17.6627Z" fill="#F2DAD4"/>
<path d="M203.535 45.6859L192.55 59.5459C192.421 59.7074 192.341 59.9022 192.319 60.1076C192.297 60.313 192.334 60.5205 192.425 60.7057C192.517 60.8909 192.66 61.0461 192.837 61.1533C193.014 61.2604 193.218 61.3149 193.425 61.3105L213.716 60.9677C213.882 60.9647 214.045 60.9239 214.193 60.8483C214.342 60.7727 214.47 60.6643 214.57 60.5314L224.946 46.691C225.056 46.5432 225.123 46.3676 225.139 46.1838C225.155 46.0001 225.119 45.8156 225.036 45.6511C224.952 45.4867 224.824 45.3488 224.666 45.2531C224.508 45.1574 224.327 45.1076 224.142 45.1094L204.37 45.273C204.209 45.2745 204.05 45.3124 203.905 45.3839C203.76 45.4554 203.634 45.5587 203.535 45.6859Z" fill="url(#paint5_linear_715_13868)"/>
<path d="M220.899 51.2687C219.83 51.3778 218.281 51.9777 218.281 52.5347C218.281 53.0918 219.526 53.2437 219.869 53.3138C220.213 53.3839 220.65 53.4735 220.536 53.6449C220.423 53.8163 220.146 54.6733 219.459 54.5214C218.773 54.3695 215.764 54.3305 215.167 54.3305C214.57 54.3305 213.899 54.72 213.856 55.168C213.813 55.616 213.684 55.6822 213.341 55.7017C212.998 55.7212 212.373 56.0445 212.373 56.6054C212.373 57.1664 213.751 57.665 213.751 57.8598C213.751 58.0545 216.459 59.7101 216.989 60.0139C217.52 60.3178 218.511 61.1047 219.073 61.1047C219.635 61.1047 220.568 60.5749 220.634 59.8075C220.7 59.0401 221.805 58.483 221.805 58.1052C221.805 57.7273 221.453 57.4507 221.496 57.2131C221.539 56.9755 222.503 56.6405 222.503 56.0445C222.503 55.4485 222.113 54.6344 222.07 54.385C222.027 54.1357 221.789 53.606 222.011 53.5203C222.234 53.4346 223.018 52.7412 222.878 52.0556C222.737 51.37 221.395 51.2181 220.899 51.2687Z" fill="#FFD3BC"/>
<path d="M167.444 159.943C168.666 160.601 169.349 162.603 169.524 162.627C169.7 162.65 170.02 162.603 170.02 162.405C170.02 162.206 169.969 161.54 170.191 161.54C170.414 161.54 170.664 162.627 170.714 164.212C170.765 165.797 171.327 169.572 170.714 170.055C170.324 170.355 166.812 172.209 166.699 172.455C166.586 172.7 166.773 174.434 166.477 174.706C166.18 174.979 165.485 175.645 164.939 175.672C164.393 175.7 161.244 176.019 159.757 175.672C158.27 175.326 156.386 174.609 156.339 174.41C156.292 174.212 156.71 170.005 157.182 169.486C157.654 168.968 161.049 164.313 161.318 163.893C161.623 163.259 161.784 162.566 161.79 161.863C161.79 161.271 162.329 159.974 163.351 159.662C164.373 159.35 166.527 159.448 167.444 159.943Z" fill="url(#paint6_linear_715_13868)"/>
</g>
<defs>
<linearGradient id="paint0_linear_715_13868" x1="171.998" y1="165.782" x2="172" y2="222.977" gradientUnits="userSpaceOnUse">
<stop stop-color="#EDE9F7"/>
<stop offset="1" stop-color="#EDE9F7" stop-opacity="0"/>
</linearGradient>
<linearGradient id="paint1_linear_715_13868" x1="202.107" y1="165.272" x2="193.241" y2="172.003" gradientUnits="userSpaceOnUse">
<stop stop-color="#4E9CFF"/>
<stop offset="0.98" stop-color="#176AD4"/>
</linearGradient>
<linearGradient id="paint2_linear_715_13868" x1="176.825" y1="14.6782" x2="160.039" y2="12.802" gradientUnits="userSpaceOnUse">
<stop stop-color="#F2BFAD"/>
<stop offset="1" stop-color="#F2DAD4"/>
</linearGradient>
<linearGradient id="paint3_linear_715_13868" x1="214.317" y1="60.0328" x2="215.168" y2="74.4889" gradientUnits="userSpaceOnUse">
<stop stop-color="#F2BFAD"/>
<stop offset="0.7" stop-color="#F2DAD4"/>
</linearGradient>
<linearGradient id="paint4_linear_715_13868" x1="179.002" y1="20.6926" x2="184.54" y2="32.2733" gradientUnits="userSpaceOnUse">
<stop stop-color="#F2BFAD"/>
<stop offset="1" stop-color="#F2DAD4"/>
</linearGradient>
<linearGradient id="paint5_linear_715_13868" x1="205.006" y1="46.3209" x2="214.642" y2="64.0824" gradientUnits="userSpaceOnUse">
<stop stop-color="#F6DBDB"/>
<stop offset="1" stop-color="#EB9A99"/>
</linearGradient>
<linearGradient id="paint6_linear_715_13868" x1="160.936" y1="166.21" x2="169.798" y2="172.941" gradientUnits="userSpaceOnUse">
<stop stop-color="#4E9CFF"/>
<stop offset="0.98" stop-color="#176AD4"/>
</linearGradient>
<clipPath id="clip0_715_13868">
<rect width="343" height="287" fill="white" transform="translate(0.5)"/>
</clipPath>
</defs>
</svg>
