<svg width="24" height="24" viewBox="0 0 24 24" fill="none" xmlns="http://www.w3.org/2000/svg">
<path d="M12.0202 2.91016C8.71021 2.91016 6.02021 5.60016 6.02021 8.91016V11.8002C6.02021 12.4102 5.76021 13.3402 5.45021 13.8602L4.30021 15.7702C3.59021 16.9502 4.08021 18.2602 5.38021 18.7002C9.69021 20.1402 14.3402 20.1402 18.6502 18.7002C19.8602 18.3002 20.3902 16.8702 19.7302 15.7702L18.5802 13.8602C18.2802 13.3402 18.0202 12.4102 18.0202 11.8002V8.91016C18.0202 5.61016 15.3202 2.91016 12.0202 2.91016Z" stroke="#2D3748" stroke-width="1.5" stroke-miterlimit="10" stroke-linecap="round"/>
<path d="M13.8702 3.19994C13.5602 3.10994 13.2402 3.03994 12.9102 2.99994C11.9502 2.87994 11.0302 2.94994 10.1702 3.19994C10.4602 2.45994 11.1802 1.93994 12.0202 1.93994C12.8602 1.93994 13.5802 2.45994 13.8702 3.19994Z" stroke="#2D3748" stroke-width="1.5" stroke-miterlimit="10" stroke-linecap="round" stroke-linejoin="round"/>
<path d="M15.0202 19.0601C15.0202 20.7101 13.6702 22.0601 12.0202 22.0601C11.2002 22.0601 10.4402 21.7201 9.9002 21.1801C9.3602 20.6401 9.0202 19.8801 9.0202 19.0601" stroke="#2D3748" stroke-width="1.5" stroke-miterlimit="10"/>
</svg>
