<svg width="14" height="18" viewBox="0 0 14 18" fill="none" xmlns="http://www.w3.org/2000/svg">
<path d="M12.6744 0H9.3411C9.16429 0 8.99472 0.0702379 8.8697 0.195262C8.74468 0.320286 8.67444 0.489856 8.67444 0.666667C8.67444 0.843478 8.74468 1.01305 8.8697 1.13807C8.99472 1.2631 9.16429 1.33333 9.3411 1.33333H11.0653L8.96944 3.42917C8.35404 2.85566 7.61171 2.43585 6.80308 2.20404C5.99444 1.97222 5.14244 1.93497 4.31666 2.09532C3.49088 2.25568 2.71475 2.60909 2.05164 3.1267C1.38854 3.64431 0.857274 4.31143 0.501241 5.07357C0.145209 5.83572 -0.0254929 6.67128 0.00307729 7.512C0.0316475 8.35272 0.258679 9.17476 0.66563 9.91097C1.07258 10.6472 1.64791 11.2767 2.34462 11.7481C3.04134 12.2195 3.83968 12.5194 4.67444 12.6233V14H2.67444C2.49763 14 2.32806 14.0702 2.20303 14.1953C2.07801 14.3203 2.00777 14.4899 2.00777 14.6667C2.00777 14.8435 2.07801 15.013 2.20303 15.1381C2.32806 15.2631 2.49763 15.3333 2.67444 15.3333H4.67444V17.3333C4.67444 17.5101 4.74468 17.6797 4.8697 17.8047C4.99472 17.9298 5.16429 18 5.3411 18C5.51792 18 5.68748 17.9298 5.81251 17.8047C5.93753 17.6797 6.00777 17.5101 6.00777 17.3333V15.3333H8.00777C8.18458 15.3333 8.35415 15.2631 8.47918 15.1381C8.6042 15.013 8.67444 14.8435 8.67444 14.6667C8.67444 14.4899 8.6042 14.3203 8.47918 14.1953C8.35415 14.0702 8.18458 14 8.00777 14H6.00777V12.6233C6.90138 12.5117 7.75209 12.1753 8.48041 11.6457C9.20873 11.116 9.79087 10.4103 10.1724 9.59463C10.554 8.7789 10.7225 7.87976 10.6622 6.98123C10.602 6.0827 10.3149 5.21412 9.82777 4.45667L12.0078 2.27583V4C12.0078 4.17681 12.078 4.34638 12.203 4.4714C12.3281 4.59643 12.4976 4.66667 12.6744 4.66667C12.8512 4.66667 13.0208 4.59643 13.1458 4.4714C13.2709 4.34638 13.3411 4.17681 13.3411 4V0.666667C13.3411 0.489856 13.2709 0.320286 13.1458 0.195262C13.0208 0.0702379 12.8512 0 12.6744 0ZM5.3411 11.3333C4.54998 11.3333 3.77662 11.0987 3.11882 10.6592C2.46103 10.2197 1.94834 9.59497 1.64559 8.86407C1.34284 8.13316 1.26362 7.3289 1.41796 6.55297C1.5723 5.77705 1.95327 5.06432 2.51268 4.50491C3.07209 3.9455 3.78482 3.56453 4.56074 3.41019C5.33667 3.25585 6.14093 3.33507 6.87184 3.63782C7.60274 3.94057 8.22746 4.45326 8.66698 5.11105C9.10651 5.76885 9.3411 6.54221 9.3411 7.33333C9.34 8.39386 8.91822 9.41064 8.16831 10.1605C7.41841 10.9104 6.40163 11.3322 5.3411 11.3333Z" fill="#5A2F8D"/>
</svg>
