<svg width="19" height="18" viewBox="0 0 19 18" fill="none" xmlns="http://www.w3.org/2000/svg">
<path d="M16.31 6.43503V11.565C16.31 12.405 15.86 13.185 15.1325 13.6125L10.6775 16.185C9.94999 16.605 9.05 16.605 8.315 16.185L3.86 13.6125C3.1325 13.1925 2.6825 12.4125 2.6825 11.565V6.43503C2.6825 5.59503 3.1325 4.81499 3.86 4.38749L8.315 1.815C9.0425 1.395 9.94249 1.395 10.6775 1.815L15.1325 4.38749C15.86 4.81499 16.31 5.58753 16.31 6.43503Z" stroke="#EDF2F7" stroke-width="1.5" stroke-linecap="round" stroke-linejoin="round"/>
<path d="M9.5 8.24986C10.4651 8.24986 11.2475 7.46747 11.2475 6.50235C11.2475 5.53723 10.4651 4.75488 9.5 4.75488C8.53488 4.75488 7.7525 5.53723 7.7525 6.50235C7.7525 7.46747 8.53488 8.24986 9.5 8.24986Z" stroke="#EDF2F7" stroke-width="1.5" stroke-linecap="round" stroke-linejoin="round"/>
<path d="M12.5 12.4948C12.5 11.1448 11.1575 10.0498 9.5 10.0498C7.8425 10.0498 6.5 11.1448 6.5 12.4948" stroke="#EDF2F7" stroke-width="1.5" stroke-linecap="round" stroke-linejoin="round"/>
</svg>
