<svg width="241" height="240" viewBox="0 0 241 240" fill="none" xmlns="http://www.w3.org/2000/svg">
<g clip-path="url(#clip0_301_3452)">
<path d="M132.308 179.261C175.431 179.261 210.388 144.303 210.388 101.18C210.388 58.0579 175.431 23.1001 132.308 23.1001C89.1853 23.1001 54.2275 58.0579 54.2275 101.18C54.2275 144.303 89.1853 179.261 132.308 179.261Z" fill="#EEEBF7"/>
<path d="M240.5 0H0.5V240H240.5V0Z" stroke="white" stroke-miterlimit="10"/>
<path d="M180.3 214.242H63.7246V218.462H180.3V214.242Z" fill="#31323D"/>
<path d="M162.63 214.242C175.62 210.956 179.16 192.089 171.094 196.823C175.125 186.786 176.253 168.875 167.385 178.91C177.74 157.296 157.225 149.036 158.605 177.222C151.012 164.847 146.833 181.563 150.607 192.882C140.956 185.569 138.805 206.01 151.531 214.242H162.631H162.63Z" fill="#DCD6F0"/>
<path d="M157.348 213.242C157.337 213.242 157.328 213.242 157.317 213.24C157.211 213.223 157.139 213.122 157.156 213.017L165.01 164.808C165.027 164.702 165.127 164.629 165.233 164.647C165.339 164.664 165.411 164.765 165.394 164.87L157.54 213.079C157.525 213.174 157.442 213.242 157.348 213.242Z" fill="white"/>
<path d="M168.82 214.242C182.191 213.367 186.974 197.612 178.184 200.804C187.29 194.219 190.596 179.079 180.054 187.34C184.88 179.895 185.03 173.052 181.186 171.827C177.782 170.742 171.38 174.21 171.726 184.087C166.503 170.541 160.556 184.647 164.301 193.818C156.138 184.875 154.982 206.484 161.792 214.242H168.82Z" fill="#EEE9F5"/>
<path d="M164.691 213.757C164.667 213.757 164.642 213.752 164.619 213.743C164.52 213.703 164.472 213.589 164.511 213.489L179.267 176.67C179.306 176.57 179.42 176.521 179.52 176.562C179.619 176.601 179.667 176.715 179.628 176.815L164.873 213.635C164.843 213.71 164.769 213.757 164.691 213.757Z" fill="white"/>
<path d="M80.688 214.242C66.4428 210.638 62.5608 189.948 71.4048 195.139C66.9852 184.133 65.7468 164.49 75.4728 175.496C64.1172 151.793 86.6148 142.735 85.1016 173.644C93.4284 160.074 98.0112 178.404 93.8736 190.817C104.456 182.797 106.816 205.214 92.8608 214.242H80.688Z" fill="#DCD6F0"/>
<path d="M87.2711 212.048C87.1799 212.048 87.0983 211.984 87.0803 211.89L77.6735 162.043C77.6531 161.937 77.7227 161.835 77.8283 161.816C77.9339 161.796 78.0359 161.865 78.0551 161.971L87.4619 211.818C87.4823 211.924 87.4127 212.026 87.3071 212.045C87.2951 212.047 87.2831 212.048 87.2711 212.048Z" fill="white"/>
<path d="M73.8994 214.242C59.2366 213.282 53.9914 196.006 63.631 199.506C53.6446 192.283 50.0206 175.681 61.5802 184.74C56.287 176.576 56.1226 169.07 60.3382 167.726C64.0714 166.536 71.0926 170.34 70.7134 181.171C76.4398 166.316 82.963 181.787 78.8542 191.843C87.8062 182.036 89.0746 205.734 81.6058 214.241H73.8982L73.8994 214.242Z" fill="#EEE9F5"/>
<path d="M76.7505 212.058C76.6725 212.058 76.5982 212.01 76.5682 211.932L61.7661 172.805C61.7277 172.704 61.7793 172.592 61.8789 172.554C61.9797 172.516 62.0914 172.567 62.1298 172.667L76.9317 211.794C76.9701 211.895 76.9185 212.006 76.8189 212.045C76.7961 212.053 76.7733 212.057 76.7505 212.057V212.058Z" fill="white"/>
<path d="M115.032 61.9837C115.624 60.3961 120.526 48.6456 121.885 45.5508C122.024 45.2328 121.658 43.5936 122.084 42.1932C122.372 41.2428 123.137 39.2809 123.619 38.5885C123.709 38.4589 124.002 38.4337 124.334 38.3713C124.421 38.3557 125.224 38.4529 125.303 38.6521C125.526 38.3149 126.377 38.5849 126.47 38.9449C126.718 38.7193 127.805 39.0456 127.848 39.4044C128.39 39.3264 129.139 39.7656 128.906 40.3788C129.662 40.7532 129.97 41.214 129.698 42.2988C129.522 43.0092 129.448 44.3089 129.244 44.7493C128.992 45.2929 128.305 45.9036 127.992 46.116C127.514 46.44 126.68 47.1228 126.437 47.4829C125.95 48.2004 122.303 64.5697 122.303 64.5697L128.906 81.072L122.4 85.5985C122.4 85.5985 114.754 68.2033 114.45 66.5137C114.311 65.7385 114.656 62.9916 115.031 61.9848L115.032 61.9837Z" fill="#F7A890"/>
<path d="M128.907 40.3788C128.907 40.3788 127.851 39.9372 127.782 39.9768C127.712 40.0164 127.608 41.1276 128.231 41.7948C128.537 42.1224 127.929 42.8964 127.929 42.8964C127.929 42.8964 125.896 42.636 124.98 44.7336C124.98 44.7336 125.318 42.0288 123.883 41.316C123.883 41.316 123.666 40.3812 123.237 40.236C123.237 40.236 123.767 40.23 124.131 39.0132C124.131 39.0132 124.136 39.7992 124.069 40.0416C123.993 40.3116 123.818 40.5564 123.804 40.692C123.774 40.9812 124.497 41.4036 124.748 41.07C124.569 41.5356 125.432 42.174 125.697 41.784C125.577 42.1668 126.782 42.738 127.112 42.2628C127.069 42.6924 127.842 42.9804 128.036 42.5544C128.336 42.1284 128.166 41.94 128.166 41.94C128.166 41.94 127.261 41.2092 127.635 39.912C127.68 39.7572 128.907 40.3788 128.907 40.3788Z" fill="#E58070"/>
<path d="M125.452 38.8657C125.452 38.8657 125.396 40.3009 125.324 40.4413C125.252 40.5817 124.823 40.9957 124.823 40.9957C124.823 40.9957 125.232 40.5433 125.255 40.4245C125.279 40.3057 125.452 38.8645 125.452 38.8645V38.8657Z" fill="#E58070"/>
<path d="M126.554 39.27C126.554 39.27 126.499 40.7052 126.427 40.8456C126.355 40.986 125.804 41.6688 125.804 41.6688C125.804 41.6688 126.335 40.9476 126.357 40.8288C126.381 40.71 126.554 39.2688 126.554 39.2688V39.27Z" fill="#E58070"/>
<path d="M127.743 41.3701C127.671 41.5105 127.121 42.1932 127.121 42.1932C127.121 42.1932 127.674 41.3532 127.698 41.2344C127.722 41.1156 127.815 41.2285 127.743 41.3701Z" fill="#E58070"/>
<path d="M118.476 213.805C118.476 214.044 118.293 214.242 118.055 214.242H98.1467C98.1467 214.242 96.9443 211.386 99.9503 210.485C102.956 209.582 106.464 209.142 108.193 207.714C109.921 206.286 109.539 205.135 109.841 203.182C110.142 201.228 115.602 200.567 116.415 202.688C117.303 205.006 118.479 208.696 118.477 213.806L118.476 213.805Z" fill="#272C35"/>
<path d="M142.941 213.805C142.941 214.044 142.759 214.242 142.52 214.242H129.036C129.036 214.242 128.936 211.795 130.839 210.485C132.426 209.393 133.233 208.692 133.719 207.809C134.427 206.525 134.004 205.135 134.305 203.18C134.606 201.227 140.066 200.566 140.88 202.687C141.768 205.004 142.944 208.694 142.941 213.805Z" fill="#272C35"/>
<path d="M131.502 129.304L118.553 127.301C118.553 127.301 117.139 133.92 116.208 135.965C115.301 137.958 101.178 155.426 98.2437 160.796C97.4301 162.286 97.0005 167.789 97.2753 169.117C97.7289 171.312 108.192 206.329 108.192 206.329L117.541 205.465C117.541 205.465 111.781 169.38 112.089 167.935C112.409 166.439 131.443 151.051 134.867 144.244C136.587 140.824 131.502 129.302 131.502 129.302V129.304Z" fill="#2D2D38"/>
<path d="M143.846 130.966C143.735 127.263 130.117 125.873 127.566 129.131C126.285 130.765 125.827 136.939 125.573 138.772C124.829 144.127 125.783 167.682 126.057 169.009C126.511 171.204 133.075 206.183 133.075 206.183L142.067 205.073C142.067 205.073 139.829 169.683 140.137 168.238C140.456 166.741 141.665 153.804 143.265 146.355C144.41 141.024 144.051 137.742 143.846 130.966Z" fill="#3D3E4D"/>
<path d="M122.694 65.2908L116.885 74.778C116.885 74.778 122.708 87.7164 122.694 91.5132C122.68 95.31 122.383 103.502 122.383 103.502L135.989 81.552C135.989 81.552 132.718 80.9232 130.796 78.6252C128.874 76.3272 122.694 65.292 122.694 65.292V65.2908Z" fill="#5A2F8D"/>
<path d="M144.415 82.332C144.415 82.332 153.891 87.4272 155.587 90.6288C157.283 93.8316 147.332 110.952 145.445 117.322C142.82 126.178 143.847 130.966 143.847 130.966C143.847 130.966 133.063 133.243 118.147 128.02C119.031 123.799 119.672 122.363 120.503 117.061C122.059 107.123 123.105 96.036 124.505 90.8184C125.833 85.8696 135.908 82.2024 135.908 82.2024L144.416 82.3332L144.415 82.332Z" fill="#5A2F8D"/>
<path d="M145.445 117.324C143.865 122.648 143.607 126.502 143.651 128.729C143.058 127.399 142.356 125.534 142.309 124.063C142.231 121.484 140.82 115.903 134.329 114.284C129.894 113.179 132.716 108.467 132.716 108.467L136.669 109.085L146.261 110.282C146.261 110.282 145.051 95.9364 145.446 93.7632C145.839 91.5864 149.725 90.2136 149.725 90.2136L154.703 96.06C152.339 102.586 146.804 112.735 145.447 117.322L145.445 117.324Z" fill="#4B148D"/>
<path d="M136.537 77.1456L135.988 81.5508C135.988 81.5508 132.512 84.0588 132.991 84.5076C134.597 86.0088 144.414 82.3332 144.414 82.3332L145.442 76.002L140.221 73.5408L136.536 77.1468L136.537 77.1456Z" fill="#E58070"/>
<path d="M136.162 65.7384C135.93 65.8944 133.551 78.0012 133.965 78.432C135.133 79.6428 141.682 80.4708 142.392 79.7892C143.101 79.1076 143.88 76.1184 143.88 76.1184C143.88 76.1184 146.121 75.5628 146.486 74.5344C146.874 73.4424 146.722 68.2272 146.323 67.698C145.923 67.1688 137.125 65.0928 136.162 65.7396V65.7384Z" fill="#F7A890"/>
<path d="M144.997 67.7736C144.997 67.7736 143.088 69.6755 144.131 72.8699C144.131 72.8699 146.065 72.0875 146.256 73.5983C146.447 75.1091 143.912 76.1123 143.912 76.1123C143.82 77.2643 144.202 78.2591 144.934 79.1399C144.934 79.1399 149.927 73.9835 150.926 71.1551C151.926 68.3267 152.161 64.5611 150.071 63.0575C148.295 61.7807 145.372 61.9031 145.372 61.9031C145.372 61.9031 140.921 61.5539 138.781 59.8883C136.643 58.2227 133.66 65.0891 136.162 65.7383C141.294 67.0691 144.996 67.7736 144.996 67.7736H144.997Z" fill="#272C35"/>
<path d="M139.781 107.939C140.037 108.545 140.076 108.944 140.43 109.212C141.138 109.747 149.379 112.024 149.379 112.024L148.065 95.2751L156.278 96.0011C156.266 94.2203 156.921 114.241 156.696 116.863C156.481 119.354 154.506 120.242 152.894 120.23C151.675 120.222 141.158 115.532 138.066 113.986C137.611 113.758 135.114 113.765 133.309 112.792C133.003 112.626 132.276 111.948 132.145 111.617C131.831 110.822 132.715 108.008 133.063 107.766C133.41 107.522 134.202 107.029 134.48 106.96C134.359 106.217 135.02 105.692 136.115 106.024C136.831 106.241 138.155 106.382 138.594 106.613C139.136 106.898 139.632 107.58 139.783 107.936L139.781 107.939Z" fill="#F7A890"/>
<path d="M134.478 106.961L135.818 107.363L136.841 107.901L135.659 107.543L135.836 108.152L135.478 107.557L134.478 106.961Z" fill="#E58070"/>
<path d="M133.273 107.624L133.555 109.313L133.061 107.767L133.273 107.624Z" fill="#E58070"/>
<path d="M132.587 108.757L132.94 110.123L132.491 109.038L132.587 108.757Z" fill="#E58070"/>
<path d="M132.259 109.873L132.536 110.798L132.198 110.143L132.259 109.873Z" fill="#E58070"/>
<path d="M134.965 108.666L134.544 109.087L133.965 109.212H134.637L134.965 108.666Z" fill="#E58070"/>
<path d="M155.586 90.6301C156.73 92.4505 157.492 112.43 157.492 112.43L148.546 109.868C148.546 109.868 146.733 96.5929 146.854 93.3289C146.976 90.0649 154.344 88.6561 155.586 90.6301Z" fill="#5A2F8D"/>
<path d="M126.811 88.4255C124.783 92.5019 123.383 96.8891 122.688 101.387C122.594 101.976 122.513 102.581 122.395 103.174C122.45 101.614 122.679 94.8575 122.691 91.5107C122.699 89.5295 121.116 85.0595 119.603 81.2363C119.985 81.9035 123.715 87.4871 126.811 88.4255Z" fill="#4B148D"/>
<g style="mix-blend-mode:multiply" opacity="0.36">
<path d="M89.0061 109.452C86.4849 108.342 83.5341 109.47 82.4001 111.986C81.2589 114.517 82.3857 117.494 84.9153 118.636L94.0377 122.749L98.1705 113.585C99.3117 111.054 98.1849 108.077 95.6553 106.936C93.1245 105.794 90.1473 106.921 89.0061 109.451V109.452Z" fill="#A2D7F2"/>
</g>
<path d="M87.5423 107.991C85.0211 106.881 82.0703 108.009 80.9363 110.526C79.7951 113.057 80.9219 116.034 83.4515 117.175L92.5739 121.289L96.7067 112.124C97.8479 109.593 96.7211 106.616 94.1915 105.475C91.6607 104.334 88.6835 105.461 87.5423 107.99V107.991Z" fill="#3590FF"/>
<g style="mix-blend-mode:multiply" opacity="0.36">
<path d="M91.6283 56.2752C99.9544 56.2752 106.704 49.5256 106.704 41.1996C106.704 32.8736 99.9544 26.124 91.6283 26.124C83.3023 26.124 76.5527 32.8736 76.5527 41.1996C76.5527 49.5256 83.3023 56.2752 91.6283 56.2752Z" fill="#A2D7F2"/>
</g>
<path d="M101.74 50.3983C107.628 44.511 107.628 34.9656 101.74 29.0782C95.853 23.1908 86.3077 23.1908 80.4203 29.0782C74.5329 34.9656 74.5329 44.511 80.4203 50.3983C86.3077 56.2857 95.853 56.2857 101.74 50.3983Z" fill="#FCC95D"/>
<path d="M82.0561 36.156C79.3165 40.6788 80.7637 46.566 85.2865 49.3056C89.8093 52.0452 95.6965 50.598 98.4361 46.0752L82.0561 36.156Z" fill="white"/>
<g style="mix-blend-mode:multiply" opacity="0.36">
<path d="M187.315 79.3189L183.314 80.8513L182.307 85.0164L179.613 81.6841L175.341 82.0141L177.678 78.4225L176.045 74.4613L180.182 75.5737L183.445 72.7957L183.666 77.0749L187.315 79.3189Z" fill="#A2D7F2"/>
</g>
<path d="M187.005 78.5483L183.003 80.0807L181.998 84.2447L179.304 80.9135L175.032 81.2423L177.368 77.6507L175.734 73.6895L179.873 74.8031L183.134 72.0251L183.355 76.3043L187.005 78.5483Z" fill="#00D600"/>
</g>
<defs>
<clipPath id="clip0_301_3452">
<rect width="240" height="240" fill="white" transform="translate(0.5)"/>
</clipPath>
</defs>
</svg>
