<svg width="20" height="21" viewBox="0 0 20 21" fill="none" xmlns="http://www.w3.org/2000/svg">
<path d="M10.1333 9.55817C10.05 9.54984 9.94999 9.54984 9.85832 9.55817C7.87499 9.4915 6.29999 7.8665 6.29999 5.8665C6.29999 3.82484 7.94999 2.1665 9.99999 2.1665C12.0417 2.1665 13.7 3.82484 13.7 5.8665C13.6917 7.8665 12.1167 9.4915 10.1333 9.55817Z" stroke="#574A68" stroke-width="1.5" stroke-linecap="round" stroke-linejoin="round"/>
<path d="M5.96666 12.6335C3.95 13.9835 3.95 16.1835 5.96666 17.5252C8.25833 19.0585 12.0167 19.0585 14.3083 17.5252C16.325 16.1752 16.325 13.9752 14.3083 12.6335C12.025 11.1085 8.26666 11.1085 5.96666 12.6335Z" stroke="#574A68" stroke-width="1.5" stroke-linecap="round" stroke-linejoin="round"/>
</svg>
