<svg width="20" height="21" viewBox="0 0 20 21" fill="none" xmlns="http://www.w3.org/2000/svg">
<path d="M8.74167 2.3583L4.58334 3.92497C3.62501 4.2833 2.84167 5.41663 2.84167 6.4333V12.625C2.84167 13.6083 3.49167 14.9 4.28334 15.4916L7.86667 18.1666C9.04167 19.05 10.975 19.05 12.15 18.1666L15.7333 15.4916C16.525 14.9 17.175 13.6083 17.175 12.625V6.4333C17.175 5.4083 16.3917 4.27497 15.4333 3.91663L11.275 2.3583C10.5667 2.09997 9.43334 2.09997 8.74167 2.3583Z" stroke="#574A68" stroke-width="1.5" stroke-linecap="round" stroke-linejoin="round"/>
<path d="M10 10.9166C10.9205 10.9166 11.6667 10.1704 11.6667 9.24992C11.6667 8.32944 10.9205 7.58325 10 7.58325C9.07954 7.58325 8.33334 8.32944 8.33334 9.24992C8.33334 10.1704 9.07954 10.9166 10 10.9166Z" stroke="#574A68" stroke-width="1.5" stroke-miterlimit="10" stroke-linecap="round" stroke-linejoin="round"/>
<path d="M10 10.9167V13.4167" stroke="#574A68" stroke-width="1.5" stroke-miterlimit="10" stroke-linecap="round" stroke-linejoin="round"/>
</svg>
