<svg width="20" height="20" viewBox="0 0 20 20" fill="none" xmlns="http://www.w3.org/2000/svg">
<path d="M14.1667 2.91602H5.83332C3.33332 2.91602 1.66666 4.16602 1.66666 7.08268V12.916C1.66666 15.8327 3.33332 17.0827 5.83332 17.0827H14.1667C16.6667 17.0827 18.3333 15.8327 18.3333 12.916V7.08268C18.3333 4.16602 16.6667 2.91602 14.1667 2.91602ZM14.5583 7.99102L11.95 10.0743C11.4 10.516 10.7 10.7327 9.99999 10.7327C9.29999 10.7327 8.59166 10.516 8.04999 10.0743L5.44166 7.99102C5.17499 7.77435 5.13332 7.37435 5.34166 7.10768C5.55832 6.84102 5.94999 6.79102 6.21666 7.00768L8.82499 9.09102C9.45832 9.59935 10.5333 9.59935 11.1667 9.09102L13.775 7.00768C14.0417 6.79102 14.4417 6.83268 14.65 7.10768C14.8667 7.37435 14.825 7.77435 14.5583 7.99102Z" fill="#E89630"/>
</svg>
