<svg width="25" height="24" viewBox="0 0 25 24" fill="none" xmlns="http://www.w3.org/2000/svg">
<path d="M5.5 23.75C3.84 23.75 2.28 22.87 1.44 21.44C0.989999 20.72 0.75 19.87 0.75 19C0.75 16.38 2.88 14.25 5.5 14.25C8.12 14.25 10.25 16.38 10.25 19C10.25 19.87 10.01 20.72 9.56 21.45C8.72 22.87 7.16 23.75 5.5 23.75ZM5.5 15.75C3.71 15.75 2.25 17.21 2.25 19C2.25 19.59 2.41 20.17 2.72 20.67C3.31 21.67 4.35 22.25 5.5 22.25C6.65 22.25 7.69 21.66 8.28 20.68C8.59 20.17 8.75 19.6 8.75 19C8.75 17.21 7.29 15.75 5.5 15.75Z" fill="#EDF2F7"/>
<path d="M6.69004 7.81044C6.45004 7.81044 6.23005 7.70044 6.08005 7.50044C5.91005 7.27044 5.89005 6.97041 6.02005 6.72041C6.19005 6.38041 6.43005 6.05044 6.74005 5.75044L9.99005 2.49043C11.65 0.84043 14.35 0.84043 16.01 2.49043L17.76 4.27046C18.5 5.00046 18.95 5.98046 19 7.02046C19.01 7.25046 18.92 7.47043 18.75 7.62043C18.58 7.77043 18.35 7.84043 18.13 7.80043C17.93 7.77043 17.72 7.76045 17.5 7.76045H7.50005C7.26005 7.76045 7.03005 7.78044 6.80005 7.81044C6.77005 7.81044 6.73004 7.81044 6.69004 7.81044ZM8.36005 6.25044H17.32C17.19 5.91044 16.98 5.60045 16.7 5.32045L14.94 3.54042C13.87 2.48042 12.12 2.48042 11.04 3.54042L8.36005 6.25044Z" fill="#EDF2F7"/>
<path d="M17.5 22.75H8.12998C7.80998 22.75 7.52998 22.55 7.41998 22.26C7.30998 21.96 7.39998 21.63 7.63998 21.43C7.87998 21.23 8.09998 20.97 8.25998 20.69C8.57998 20.18 8.73998 19.6 8.73998 19.01C8.73998 17.22 7.27998 15.76 5.48998 15.76C4.55998 15.76 3.66998 16.16 3.04998 16.87C2.83998 17.1 2.50998 17.19 2.21998 17.08C1.92998 16.97 1.72998 16.69 1.72998 16.38V12C1.72998 8.92 3.62998 6.69001 6.57998 6.32001C6.84998 6.28001 7.15998 6.25 7.47998 6.25H17.48C17.72 6.25 18.03 6.26 18.35 6.31C21.3 6.65 23.23 8.89 23.23 12V17C23.25 20.44 20.94 22.75 17.5 22.75ZM9.67998 21.25H17.5C20.08 21.25 21.75 19.58 21.75 17V12C21.75 9.66 20.38 8.04998 18.16 7.78998C17.92 7.74998 17.71 7.75 17.5 7.75H7.49998C7.25998 7.75 7.02998 7.76999 6.79998 7.79999C4.59998 8.07999 3.24998 9.68 3.24998 12V14.82C3.92998 14.45 4.70998 14.25 5.49998 14.25C8.11998 14.25 10.25 16.38 10.25 19C10.25 19.79 10.05 20.57 9.67998 21.25Z" fill="#EDF2F7"/>
<path d="M22.5 17.25H19.5C17.98 17.25 16.75 16.02 16.75 14.5C16.75 12.98 17.98 11.75 19.5 11.75H22.5C22.91 11.75 23.25 12.09 23.25 12.5C23.25 12.91 22.91 13.25 22.5 13.25H19.5C18.81 13.25 18.25 13.81 18.25 14.5C18.25 15.19 18.81 15.75 19.5 15.75H22.5C22.91 15.75 23.25 16.09 23.25 16.5C23.25 16.91 22.91 17.25 22.5 17.25Z" fill="#EDF2F7"/>
<rect x="3.5" y="18.5547" width="3" height="1" rx="0.5" fill="#EDF2F7"/>
<rect x="5.65259" y="17" width="2.87794" height="1" rx="0.5" transform="rotate(45 5.65259 17)" fill="#EDF2F7"/>
<rect x="4.90771" y="20.5078" width="3.01817" height="1" rx="0.5" transform="rotate(-45 4.90771 20.5078)" fill="#EDF2F7"/>
</svg>
